# xmcd
#
# Track frame offsets: 
#        150
#        17422
#        38232
#        41465
#        55802
#        75460
#        81470
#        105732
#        122150
#        148457
#        152442
#        175522
#        186120
#        201085
#
# Disc length: 2832 seconds
#
# Revision: 10
# Processed by: cddbd v1.5.2PL0 Copyright (c) Steve Scherf et al.
# Submitted via: ExactAudioCopy v1.3
#
DISCID=b10b0e0e
DTITLE=Earth, Wind and Fire - All 'N All
DYEAR=1977
DGENRE=R&B
TTITLE0=Serpentine Fire
TTITLE1=Fantasy
TTITLE2=In the Marketplace (Interlude)
TTITLE3=Jupiter
TTITLE4=Love's Holiday
TTITLE5=Brazilian Rhyme (Interlude)
TTITLE6=I'll Write a Song for You
TTITLE7=Magic Mind
TTITLE8=Runnin'
TTITLE9=Brazilian Rhyme (Interlude)
TTITLE10=Be Ever Wonderful
TTITLE11=Would You Mind?
TTITLE12=Runnin' [Original Hollywood Mix]
TTITLE13=Brazilian Rhyme [Live]
EXTD=1999 Columbia/Legacy\nEarth, Wind and Fire Original LP: 1977
EXTT0=
EXTT1=
EXTT2=
EXTT3=
EXTT4=
EXTT5=
EXTT6=
EXTT7=
EXTT8=
EXTT9=
EXTT10=
EXTT11=
EXTT12=
EXTT13=
PLAYORDER=
